<mxfile host="Electron" agent="Mozilla/5.0 (Windows NT 10.0; Win64; x64) AppleWebKit/537.36 (KHTML, like Gecko) draw.io/28.2.5 Chrome/138.0.7204.251 Electron/37.6.1 Safari/537.36" version="28.2.5">
  <diagram id="C5RBs43oDa-KdzZeNtuy" name="Page-1">
    <mxGraphModel dx="784" dy="1192" grid="1" gridSize="10" guides="1" tooltips="1" connect="1" arrows="1" fold="1" page="1" pageScale="1" pageWidth="827" pageHeight="1169" math="0" shadow="0">
      <root>
        <mxCell id="WIyWlLk6GJQsqaUBKTNV-0" />
        <mxCell id="WIyWlLk6GJQsqaUBKTNV-1" parent="WIyWlLk6GJQsqaUBKTNV-0" />
        <mxCell id="yFWr5r5O4Ta9GDU30OVd-38" style="edgeStyle=orthogonalEdgeStyle;rounded=0;orthogonalLoop=1;jettySize=auto;html=1;entryX=0.5;entryY=0;entryDx=0;entryDy=0;" parent="WIyWlLk6GJQsqaUBKTNV-1" target="yFWr5r5O4Ta9GDU30OVd-37" edge="1">
          <mxGeometry relative="1" as="geometry">
            <Array as="points">
              <mxPoint x="100" y="1045" />
              <mxPoint x="100" y="2250" />
            </Array>
            <mxPoint x="295" y="1045" as="sourcePoint" />
          </mxGeometry>
        </mxCell>
        <mxCell id="yFWr5r5O4Ta9GDU30OVd-33" style="edgeStyle=orthogonalEdgeStyle;rounded=0;orthogonalLoop=1;jettySize=auto;html=1;entryX=0.982;entryY=0.445;entryDx=0;entryDy=0;entryPerimeter=0;" parent="WIyWlLk6GJQsqaUBKTNV-1" source="yFWr5r5O4Ta9GDU30OVd-30" edge="1">
          <mxGeometry relative="1" as="geometry">
            <Array as="points">
              <mxPoint x="610" y="2149" />
              <mxPoint x="610" y="1039" />
            </Array>
            <mxPoint x="461.94000000000005" y="1038.9499999999998" as="targetPoint" />
          </mxGeometry>
        </mxCell>
        <mxCell id="LUB-QtZCNcjHioPMAko--2" value="" style="edgeStyle=orthogonalEdgeStyle;rounded=0;orthogonalLoop=1;jettySize=auto;html=1;" edge="1" parent="WIyWlLk6GJQsqaUBKTNV-1" source="LUB-QtZCNcjHioPMAko--0" target="LUB-QtZCNcjHioPMAko--1">
          <mxGeometry relative="1" as="geometry" />
        </mxCell>
        <mxCell id="LUB-QtZCNcjHioPMAko--0" value="Algus" style="ellipse;whiteSpace=wrap;html=1;" vertex="1" parent="WIyWlLk6GJQsqaUBKTNV-1">
          <mxGeometry x="320" y="60" width="120" height="80" as="geometry" />
        </mxCell>
        <mxCell id="LUB-QtZCNcjHioPMAko--49" value="" style="edgeStyle=orthogonalEdgeStyle;rounded=0;orthogonalLoop=1;jettySize=auto;html=1;" edge="1" parent="WIyWlLk6GJQsqaUBKTNV-1" source="LUB-QtZCNcjHioPMAko--1" target="LUB-QtZCNcjHioPMAko--48">
          <mxGeometry relative="1" as="geometry" />
        </mxCell>
        <mxCell id="LUB-QtZCNcjHioPMAko--1" value="Kuva kasutajale tekst &quot;&quot;Tere tulemast MobiFix parandusautomaati!&lt;div&gt;Kuidas saan aidata?&lt;/div&gt;" style="shape=parallelogram;perimeter=parallelogramPerimeter;whiteSpace=wrap;html=1;fixedSize=1;" vertex="1" parent="WIyWlLk6GJQsqaUBKTNV-1">
          <mxGeometry x="300" y="190" width="160" height="80" as="geometry" />
        </mxCell>
        <mxCell id="LUB-QtZCNcjHioPMAko--10" value="" style="edgeStyle=orthogonalEdgeStyle;rounded=0;orthogonalLoop=1;jettySize=auto;html=1;" edge="1" parent="WIyWlLk6GJQsqaUBKTNV-1" source="LUB-QtZCNcjHioPMAko--5" target="LUB-QtZCNcjHioPMAko--9">
          <mxGeometry relative="1" as="geometry" />
        </mxCell>
        <mxCell id="LUB-QtZCNcjHioPMAko--11" value="Jah" style="edgeLabel;html=1;align=center;verticalAlign=middle;resizable=0;points=[];" vertex="1" connectable="0" parent="LUB-QtZCNcjHioPMAko--10">
          <mxGeometry x="-0.34" y="-3" relative="1" as="geometry">
            <mxPoint as="offset" />
          </mxGeometry>
        </mxCell>
        <mxCell id="LUB-QtZCNcjHioPMAko--5" value="Kas kasutaja on sisestanud oma valiku?" style="rhombus;whiteSpace=wrap;html=1;" vertex="1" parent="WIyWlLk6GJQsqaUBKTNV-1">
          <mxGeometry x="275" y="420" width="210" height="120" as="geometry" />
        </mxCell>
        <mxCell id="LUB-QtZCNcjHioPMAko--7" style="edgeStyle=orthogonalEdgeStyle;rounded=0;orthogonalLoop=1;jettySize=auto;html=1;entryX=0.975;entryY=0.363;entryDx=0;entryDy=0;entryPerimeter=0;" edge="1" parent="WIyWlLk6GJQsqaUBKTNV-1" source="LUB-QtZCNcjHioPMAko--5" target="LUB-QtZCNcjHioPMAko--1">
          <mxGeometry relative="1" as="geometry">
            <Array as="points">
              <mxPoint x="550" y="480" />
              <mxPoint x="550" y="219" />
            </Array>
          </mxGeometry>
        </mxCell>
        <mxCell id="LUB-QtZCNcjHioPMAko--8" value="Ei" style="edgeLabel;html=1;align=center;verticalAlign=middle;resizable=0;points=[];" vertex="1" connectable="0" parent="LUB-QtZCNcjHioPMAko--7">
          <mxGeometry x="-0.8" y="1" relative="1" as="geometry">
            <mxPoint as="offset" />
          </mxGeometry>
        </mxCell>
        <mxCell id="LUB-QtZCNcjHioPMAko--12" style="edgeStyle=orthogonalEdgeStyle;rounded=0;orthogonalLoop=1;jettySize=auto;html=1;entryX=0;entryY=0.5;entryDx=0;entryDy=0;" edge="1" parent="WIyWlLk6GJQsqaUBKTNV-1" source="LUB-QtZCNcjHioPMAko--9" target="LUB-QtZCNcjHioPMAko--1">
          <mxGeometry relative="1" as="geometry">
            <Array as="points">
              <mxPoint x="230" y="645" />
              <mxPoint x="230" y="230" />
            </Array>
          </mxGeometry>
        </mxCell>
        <mxCell id="LUB-QtZCNcjHioPMAko--13" value="Ei" style="edgeLabel;html=1;align=center;verticalAlign=middle;resizable=0;points=[];" vertex="1" connectable="0" parent="LUB-QtZCNcjHioPMAko--12">
          <mxGeometry x="-0.8941" y="-3" relative="1" as="geometry">
            <mxPoint as="offset" />
          </mxGeometry>
        </mxCell>
        <mxCell id="LUB-QtZCNcjHioPMAko--15" value="" style="edgeStyle=orthogonalEdgeStyle;rounded=0;orthogonalLoop=1;jettySize=auto;html=1;" edge="1" parent="WIyWlLk6GJQsqaUBKTNV-1" source="LUB-QtZCNcjHioPMAko--9" target="LUB-QtZCNcjHioPMAko--14">
          <mxGeometry relative="1" as="geometry" />
        </mxCell>
        <mxCell id="LUB-QtZCNcjHioPMAko--51" value="Jah" style="edgeLabel;html=1;align=center;verticalAlign=middle;resizable=0;points=[];" vertex="1" connectable="0" parent="LUB-QtZCNcjHioPMAko--15">
          <mxGeometry x="-0.2444" y="5" relative="1" as="geometry">
            <mxPoint as="offset" />
          </mxGeometry>
        </mxCell>
        <mxCell id="LUB-QtZCNcjHioPMAko--9" value="Kas kasutaja valik oli &quot;Sisene&quot;?" style="rhombus;whiteSpace=wrap;html=1;" vertex="1" parent="WIyWlLk6GJQsqaUBKTNV-1">
          <mxGeometry x="305" y="590" width="150" height="110" as="geometry" />
        </mxCell>
        <mxCell id="LUB-QtZCNcjHioPMAko--60" value="" style="edgeStyle=orthogonalEdgeStyle;rounded=0;orthogonalLoop=1;jettySize=auto;html=1;" edge="1" parent="WIyWlLk6GJQsqaUBKTNV-1" source="LUB-QtZCNcjHioPMAko--14" target="LUB-QtZCNcjHioPMAko--57">
          <mxGeometry relative="1" as="geometry" />
        </mxCell>
        <mxCell id="LUB-QtZCNcjHioPMAko--14" value="Kuva kasutajale tekst&lt;div&gt;&quot;Mis telefoni soovid parandada?&quot;&lt;/div&gt;" style="shape=parallelogram;perimeter=parallelogramPerimeter;whiteSpace=wrap;html=1;fixedSize=1;" vertex="1" parent="WIyWlLk6GJQsqaUBKTNV-1">
          <mxGeometry x="320" y="745" width="120" height="60" as="geometry" />
        </mxCell>
        <mxCell id="LUB-QtZCNcjHioPMAko--21" value="" style="edgeStyle=orthogonalEdgeStyle;rounded=0;orthogonalLoop=1;jettySize=auto;html=1;" edge="1" parent="WIyWlLk6GJQsqaUBKTNV-1" source="LUB-QtZCNcjHioPMAko--16" target="LUB-QtZCNcjHioPMAko--20">
          <mxGeometry relative="1" as="geometry" />
        </mxCell>
        <mxCell id="LUB-QtZCNcjHioPMAko--65" value="Jah" style="edgeLabel;html=1;align=center;verticalAlign=middle;resizable=0;points=[];" vertex="1" connectable="0" parent="LUB-QtZCNcjHioPMAko--21">
          <mxGeometry x="-0.5636" relative="1" as="geometry">
            <mxPoint as="offset" />
          </mxGeometry>
        </mxCell>
        <mxCell id="LUB-QtZCNcjHioPMAko--63" style="edgeStyle=orthogonalEdgeStyle;rounded=0;orthogonalLoop=1;jettySize=auto;html=1;entryX=1;entryY=0.5;entryDx=0;entryDy=0;" edge="1" parent="WIyWlLk6GJQsqaUBKTNV-1" source="LUB-QtZCNcjHioPMAko--16" target="LUB-QtZCNcjHioPMAko--57">
          <mxGeometry relative="1" as="geometry">
            <Array as="points">
              <mxPoint x="550" y="1033" />
              <mxPoint x="550" y="870" />
            </Array>
          </mxGeometry>
        </mxCell>
        <mxCell id="LUB-QtZCNcjHioPMAko--64" value="Ei" style="edgeLabel;html=1;align=center;verticalAlign=middle;resizable=0;points=[];" vertex="1" connectable="0" parent="LUB-QtZCNcjHioPMAko--63">
          <mxGeometry x="-0.8952" y="3" relative="1" as="geometry">
            <mxPoint y="1" as="offset" />
          </mxGeometry>
        </mxCell>
        <mxCell id="LUB-QtZCNcjHioPMAko--16" value="Kas kasutaja on valinud numbri 1-4?" style="rhombus;whiteSpace=wrap;html=1;" vertex="1" parent="WIyWlLk6GJQsqaUBKTNV-1">
          <mxGeometry x="290" y="970" width="180" height="125" as="geometry" />
        </mxCell>
        <mxCell id="LUB-QtZCNcjHioPMAko--26" value="" style="edgeStyle=orthogonalEdgeStyle;rounded=0;orthogonalLoop=1;jettySize=auto;html=1;" edge="1" parent="WIyWlLk6GJQsqaUBKTNV-1" source="LUB-QtZCNcjHioPMAko--20" target="LUB-QtZCNcjHioPMAko--25">
          <mxGeometry relative="1" as="geometry" />
        </mxCell>
        <mxCell id="LUB-QtZCNcjHioPMAko--40" value="" style="edgeStyle=orthogonalEdgeStyle;rounded=0;orthogonalLoop=1;jettySize=auto;html=1;" edge="1" parent="WIyWlLk6GJQsqaUBKTNV-1" source="LUB-QtZCNcjHioPMAko--20" target="LUB-QtZCNcjHioPMAko--22">
          <mxGeometry relative="1" as="geometry" />
        </mxCell>
        <mxCell id="LUB-QtZCNcjHioPMAko--41" value="Jah" style="edgeLabel;html=1;align=center;verticalAlign=middle;resizable=0;points=[];" vertex="1" connectable="0" parent="LUB-QtZCNcjHioPMAko--40">
          <mxGeometry x="-0.1159" relative="1" as="geometry">
            <mxPoint as="offset" />
          </mxGeometry>
        </mxCell>
        <mxCell id="LUB-QtZCNcjHioPMAko--20" value="Kas kasutaja valitud number oli 1 ehk iphone?" style="rhombus;whiteSpace=wrap;html=1;" vertex="1" parent="WIyWlLk6GJQsqaUBKTNV-1">
          <mxGeometry x="290" y="1136.25" width="180" height="127.5" as="geometry" />
        </mxCell>
        <mxCell id="LUB-QtZCNcjHioPMAko--67" style="edgeStyle=orthogonalEdgeStyle;rounded=0;orthogonalLoop=1;jettySize=auto;html=1;entryX=1;entryY=0.5;entryDx=0;entryDy=0;" edge="1" parent="WIyWlLk6GJQsqaUBKTNV-1" source="LUB-QtZCNcjHioPMAko--22" target="LUB-QtZCNcjHioPMAko--47">
          <mxGeometry relative="1" as="geometry">
            <Array as="points">
              <mxPoint x="960" y="1200" />
              <mxPoint x="960" y="2030" />
            </Array>
          </mxGeometry>
        </mxCell>
        <mxCell id="LUB-QtZCNcjHioPMAko--22" value="Kuva kasutajale tekst&lt;div&gt;&quot;Saad oma iphone tagasi 1 nädala pärast&quot;&lt;/div&gt;" style="shape=parallelogram;perimeter=parallelogramPerimeter;whiteSpace=wrap;html=1;fixedSize=1;" vertex="1" parent="WIyWlLk6GJQsqaUBKTNV-1">
          <mxGeometry x="590" y="1170" width="120" height="60" as="geometry" />
        </mxCell>
        <mxCell id="LUB-QtZCNcjHioPMAko--31" value="" style="edgeStyle=orthogonalEdgeStyle;rounded=0;orthogonalLoop=1;jettySize=auto;html=1;" edge="1" parent="WIyWlLk6GJQsqaUBKTNV-1" source="LUB-QtZCNcjHioPMAko--25" target="LUB-QtZCNcjHioPMAko--30">
          <mxGeometry relative="1" as="geometry" />
        </mxCell>
        <mxCell id="LUB-QtZCNcjHioPMAko--58" style="edgeStyle=orthogonalEdgeStyle;rounded=0;orthogonalLoop=1;jettySize=auto;html=1;" edge="1" parent="WIyWlLk6GJQsqaUBKTNV-1" source="LUB-QtZCNcjHioPMAko--25" target="LUB-QtZCNcjHioPMAko--27">
          <mxGeometry relative="1" as="geometry" />
        </mxCell>
        <mxCell id="LUB-QtZCNcjHioPMAko--59" value="Jah" style="edgeLabel;html=1;align=center;verticalAlign=middle;resizable=0;points=[];" vertex="1" connectable="0" parent="LUB-QtZCNcjHioPMAko--58">
          <mxGeometry x="-0.0108" y="-4" relative="1" as="geometry">
            <mxPoint x="1" y="1" as="offset" />
          </mxGeometry>
        </mxCell>
        <mxCell id="LUB-QtZCNcjHioPMAko--25" value="Kas kasutaja valitud number oli 2 ehk xiaomi?" style="rhombus;whiteSpace=wrap;html=1;" vertex="1" parent="WIyWlLk6GJQsqaUBKTNV-1">
          <mxGeometry x="290" y="1343.75" width="180" height="127.5" as="geometry" />
        </mxCell>
        <mxCell id="LUB-QtZCNcjHioPMAko--68" style="edgeStyle=orthogonalEdgeStyle;rounded=0;orthogonalLoop=1;jettySize=auto;html=1;" edge="1" parent="WIyWlLk6GJQsqaUBKTNV-1" source="LUB-QtZCNcjHioPMAko--27">
          <mxGeometry relative="1" as="geometry">
            <mxPoint x="960" y="1407.5" as="targetPoint" />
          </mxGeometry>
        </mxCell>
        <mxCell id="LUB-QtZCNcjHioPMAko--27" value="Kuva kasutajale tekst&lt;div&gt;&quot;Sinu xiaomi on valmis 2 kuu pärast&quot;&lt;/div&gt;" style="shape=parallelogram;perimeter=parallelogramPerimeter;whiteSpace=wrap;html=1;fixedSize=1;" vertex="1" parent="WIyWlLk6GJQsqaUBKTNV-1">
          <mxGeometry x="610" y="1377.5" width="120" height="60" as="geometry" />
        </mxCell>
        <mxCell id="LUB-QtZCNcjHioPMAko--36" value="" style="edgeStyle=orthogonalEdgeStyle;rounded=0;orthogonalLoop=1;jettySize=auto;html=1;" edge="1" parent="WIyWlLk6GJQsqaUBKTNV-1" source="LUB-QtZCNcjHioPMAko--30" target="LUB-QtZCNcjHioPMAko--35">
          <mxGeometry relative="1" as="geometry" />
        </mxCell>
        <mxCell id="LUB-QtZCNcjHioPMAko--45" value="" style="edgeStyle=orthogonalEdgeStyle;rounded=0;orthogonalLoop=1;jettySize=auto;html=1;" edge="1" parent="WIyWlLk6GJQsqaUBKTNV-1" source="LUB-QtZCNcjHioPMAko--30" target="LUB-QtZCNcjHioPMAko--32">
          <mxGeometry relative="1" as="geometry" />
        </mxCell>
        <mxCell id="LUB-QtZCNcjHioPMAko--46" value="Jah" style="edgeLabel;html=1;align=center;verticalAlign=middle;resizable=0;points=[];" vertex="1" connectable="0" parent="LUB-QtZCNcjHioPMAko--45">
          <mxGeometry x="-0.0326" y="1" relative="1" as="geometry">
            <mxPoint as="offset" />
          </mxGeometry>
        </mxCell>
        <mxCell id="LUB-QtZCNcjHioPMAko--30" value="Kas kasutaja valitud number oli 3 ehk huawei?" style="rhombus;whiteSpace=wrap;html=1;" vertex="1" parent="WIyWlLk6GJQsqaUBKTNV-1">
          <mxGeometry x="290" y="1551.25" width="180" height="127.5" as="geometry" />
        </mxCell>
        <mxCell id="LUB-QtZCNcjHioPMAko--69" style="edgeStyle=orthogonalEdgeStyle;rounded=0;orthogonalLoop=1;jettySize=auto;html=1;" edge="1" parent="WIyWlLk6GJQsqaUBKTNV-1" source="LUB-QtZCNcjHioPMAko--32">
          <mxGeometry relative="1" as="geometry">
            <mxPoint x="960" y="1615" as="targetPoint" />
          </mxGeometry>
        </mxCell>
        <mxCell id="LUB-QtZCNcjHioPMAko--32" value="Kuva kasutajale tekst &quot;Kahjuks me huaweid ei teeninda&quot;" style="shape=parallelogram;perimeter=parallelogramPerimeter;whiteSpace=wrap;html=1;fixedSize=1;" vertex="1" parent="WIyWlLk6GJQsqaUBKTNV-1">
          <mxGeometry x="600" y="1585" width="120" height="60" as="geometry" />
        </mxCell>
        <mxCell id="LUB-QtZCNcjHioPMAko--43" value="" style="edgeStyle=orthogonalEdgeStyle;rounded=0;orthogonalLoop=1;jettySize=auto;html=1;" edge="1" parent="WIyWlLk6GJQsqaUBKTNV-1" source="LUB-QtZCNcjHioPMAko--35" target="LUB-QtZCNcjHioPMAko--42">
          <mxGeometry relative="1" as="geometry" />
        </mxCell>
        <mxCell id="LUB-QtZCNcjHioPMAko--44" value="Jah" style="edgeLabel;html=1;align=center;verticalAlign=middle;resizable=0;points=[];" vertex="1" connectable="0" parent="LUB-QtZCNcjHioPMAko--43">
          <mxGeometry x="-0.3824" relative="1" as="geometry">
            <mxPoint as="offset" />
          </mxGeometry>
        </mxCell>
        <mxCell id="LUB-QtZCNcjHioPMAko--35" value="Kas kasutaja valitud number oli 4 ehk samsung?" style="rhombus;whiteSpace=wrap;html=1;" vertex="1" parent="WIyWlLk6GJQsqaUBKTNV-1">
          <mxGeometry x="290" y="1770" width="180" height="127.5" as="geometry" />
        </mxCell>
        <mxCell id="LUB-QtZCNcjHioPMAko--70" style="edgeStyle=orthogonalEdgeStyle;rounded=0;orthogonalLoop=1;jettySize=auto;html=1;" edge="1" parent="WIyWlLk6GJQsqaUBKTNV-1" source="LUB-QtZCNcjHioPMAko--42">
          <mxGeometry relative="1" as="geometry">
            <mxPoint x="960" y="1833.75" as="targetPoint" />
          </mxGeometry>
        </mxCell>
        <mxCell id="LUB-QtZCNcjHioPMAko--42" value="Kuva kasutajale tekst&lt;div&gt;&quot;Sinu samsung on valmis 2 päeva pärast&quot;&lt;/div&gt;" style="shape=parallelogram;perimeter=parallelogramPerimeter;whiteSpace=wrap;html=1;fixedSize=1;" vertex="1" parent="WIyWlLk6GJQsqaUBKTNV-1">
          <mxGeometry x="600" y="1803.75" width="120" height="60" as="geometry" />
        </mxCell>
        <mxCell id="LUB-QtZCNcjHioPMAko--47" value="Lõpp" style="ellipse;whiteSpace=wrap;html=1;" vertex="1" parent="WIyWlLk6GJQsqaUBKTNV-1">
          <mxGeometry x="320" y="1990" width="120" height="80" as="geometry" />
        </mxCell>
        <mxCell id="LUB-QtZCNcjHioPMAko--50" value="" style="edgeStyle=orthogonalEdgeStyle;rounded=0;orthogonalLoop=1;jettySize=auto;html=1;" edge="1" parent="WIyWlLk6GJQsqaUBKTNV-1" source="LUB-QtZCNcjHioPMAko--48" target="LUB-QtZCNcjHioPMAko--5">
          <mxGeometry relative="1" as="geometry" />
        </mxCell>
        <mxCell id="LUB-QtZCNcjHioPMAko--48" value="Kuva kasutajale valik siseneda või mitte" style="shape=parallelogram;perimeter=parallelogramPerimeter;whiteSpace=wrap;html=1;fixedSize=1;" vertex="1" parent="WIyWlLk6GJQsqaUBKTNV-1">
          <mxGeometry x="320" y="290" width="120" height="60" as="geometry" />
        </mxCell>
        <mxCell id="LUB-QtZCNcjHioPMAko--61" value="" style="edgeStyle=orthogonalEdgeStyle;rounded=0;orthogonalLoop=1;jettySize=auto;html=1;" edge="1" parent="WIyWlLk6GJQsqaUBKTNV-1" source="LUB-QtZCNcjHioPMAko--57" target="LUB-QtZCNcjHioPMAko--16">
          <mxGeometry relative="1" as="geometry" />
        </mxCell>
        <mxCell id="LUB-QtZCNcjHioPMAko--57" value="Kuva kasutajale numbrivalik 1-4" style="shape=parallelogram;perimeter=parallelogramPerimeter;whiteSpace=wrap;html=1;fixedSize=1;" vertex="1" parent="WIyWlLk6GJQsqaUBKTNV-1">
          <mxGeometry x="320" y="840" width="120" height="60" as="geometry" />
        </mxCell>
      </root>
    </mxGraphModel>
  </diagram>
</mxfile>
